<?xml version="1.0" standalone="no"?><!DOCTYPE svg PUBLIC "-//W3C//DTD SVG 1.1//EN" "http://www.w3.org/Graphics/SVG/1.1/DTD/svg11.dtd"><svg width="100%" height="100%" viewBox="0 0 90 60" version="1.1" xmlns="http://www.w3.org/2000/svg" xmlns:xlink="http://www.w3.org/1999/xlink" xml:space="preserve" style="fill-rule:evenodd;clip-rule:evenodd;stroke-linejoin:round;stroke-miterlimit:1.41421;"><g id="Calque 1"><path d="M75.4,30.3c0,13.7 -8.6,25.3 -20.9,29.2c-0.3,-1.2 -1.5,-9.8 -1.5,-11.9c0,-0.9 0,-3.3 -2.4,-4.8c8.9,-0.9 12.8,-5.4 13.4,-11.9c0.3,-4.2 -0.3,-7.7 -3,-10.4c1.2,-2.7 0.3,-6.3 -0.3,-7.7c-2.1,-0.6 -6.9,1.8 -8,3c-2.7,-1.2 -10.4,-1.5 -14.6,0c-3,-2.1 -6.3,-3.3 -8,-3c-1.8,3.9 -0.6,7.4 -0.3,7.7c-2.4,2.1 -3.9,6.3 -3,11c1.2,7.1 5.1,10.4 13.4,11.3c-1.8,0.3 -2.1,1.8 -2.4,2.4c-5.7,2.4 -7.4,-1.5 -8,-2.4c-2.4,-3 -4.8,-2.1 -4.8,-2.1c-0.3,0 -0.3,0.3 -0.3,0.3c0,0.9 1.5,1.5 1.5,1.5c1.5,1.5 2.4,3.9 2.7,4.5c2.4,4.2 8.3,2.4 8.3,2.4c0,0.6 -1.5,9.8 -1.5,10.4c-12.2,-3.9 -21.1,-15.5 -21.1,-29.2c0,-16.7 13.4,-30.4 29.8,-30.4c16.4,0 29.8,13.7 31,30.1" style="fill:#262626;fill-rule:nonzero;"/></g></svg>