<?xml version="1.0" encoding="utf-8"?>
<!-- Generator: Adobe Illustrator 17.1.0, SVG Export Plug-In . SVG Version: 6.00 Build 0)  -->
<!DOCTYPE svg PUBLIC "-//W3C//DTD SVG 1.1//EN" "http://www.w3.org/Graphics/SVG/1.1/DTD/svg11.dtd">
<svg version="1.1" width="59px" height="76px" id="Calque_1" xmlns="http://www.w3.org/2000/svg" xmlns:xlink="http://www.w3.org/1999/xlink" x="0px" y="0px"
	 viewBox="0 0 59 76" enable-background="new 0 0 59 76" xml:space="preserve">
<g>
	<g>
		<path fill="#4BACDB" d="M15.5,37.9c2.9,1,5.4-0.8,5.8-3c0.2-1.4-0.4-2.5-1.5-3.8l-0.9-1c-0.5-0.6-0.7-1.6-0.2-2.3
			c0.5-0.6,1.1-0.9,2.2-0.6c1.6,0.5,2.3,1.6,3.5,2.6c-0.5,1.7-0.8,3.4-1.1,5l-0.2,1.2c-0.8,4.8-1.5,7.4-3.2,8.9
			c-0.3,0.3-0.8,0.6-1.5,0.7c-0.4,0-0.5-0.3-0.5-0.4c0-0.3,0.2-0.4,0.4-0.5c0.2-0.1,0.6-0.3,0.5-1c0-0.8-0.7-1.5-1.6-1.5
			c-0.7,0-1.7,0.7-1.7,2c0,1.3,1.2,2.3,2.9,2.2c0.9,0,3-0.4,5-3c2.4-3,3-6.4,3.5-8.8l0.6-3.3c0.3,0,0.6,0.1,1,0.1
			c2.9,0.1,4.4-1.6,4.4-2.8c0-0.7-0.4-1.4-1.1-1.4c-0.5,0-1,0.3-1.2,1c-0.1,0.7,0.9,1.3,0.1,1.8c-0.6,0.4-1.7,0.7-3.2,0.5l0.3-1.6
			c0.6-3.1,1.2-6.8,3.8-6.9c0.2,0,0.9,0,0.9,0.5c0,0.2,0,0.2-0.2,0.6c-0.2,0.3-0.3,0.5-0.2,0.8c0,0.8,0.6,1.3,1.4,1.3
			c1.1,0,1.4-1.2,1.4-1.7c0-1.4-1.4-2.2-3.1-2.1c-1.8,0.1-3.3,1.1-4.4,2.5c-1.3,1.6-2.1,3.5-2.7,5.4c-1.1-1-1.9-2.2-3.7-2.7
			C19.7,25.8,18.3,26,17,27c-0.6,0.5-1,1.2-1.2,1.9c-0.5,1.8,0.5,3.4,1,4l1.1,1.2c0.2,0.2,0.7,0.9,0.5,1.8c-0.3,1-1.4,1.6-2.5,1.2
			c-0.5-0.2-1.2-0.6-1.1-1.1c0.1-0.2,0.2-0.4,0.3-0.6c0.1-0.2,0.1-0.3,0.1-0.4c0.2-0.7-0.1-1.7-0.8-1.9c-0.7-0.2-1.4,0-1.6,0.9
			C12.5,35.1,13,37,15.5,37.9z M58.8,14.2c0-5-3.8-9-8.5-9l-2.1,0c-0.5-3-3-5.2-5.9-5.2L5.9,0.1C2.6,0.2,0,3,0,6.6l0.2,52.6
			C0.2,64.9,9.9,75.8,14,76l36.6-0.1c4.6,0,8.4-4.1,8.4-9.1L58.8,14.2z M7,32.7c0-10.3,7.8-18.6,17.3-18.6c9.6,0,17.3,8.3,17.3,18.6
			c0,10.3-7.8,18.6-17.3,18.6C14.7,51.3,7,43,7,32.7z M53.9,66.9c0,2.1-1.6,3.7-3.5,3.7H14.1c-0.8,0-3.6-2.1-5.4-5.2h33.9
			c3.3,0,6-2.9,6-6.4V10.6h2c1.9,0,3.5,1.7,3.5,3.7V66.9z"/>
	</g>
</g>
</svg>
