<?xml version="1.0" encoding="utf-8"?>
<!-- Generator: Adobe Illustrator 17.1.0, SVG Export Plug-In . SVG Version: 6.00 Build 0)  -->
<!DOCTYPE svg PUBLIC "-//W3C//DTD SVG 1.1//EN" "http://www.w3.org/Graphics/SVG/1.1/DTD/svg11.dtd">
<svg version="1.1" width="25px" height="25px" id="Calque_1" xmlns="http://www.w3.org/2000/svg" xmlns:xlink="http://www.w3.org/1999/xlink" x="0px" y="0px"
	 viewBox="0 0 25 25" style="enable-background:new 0 0 25 25;" xml:space="preserve">
<style type="text/css">
	.st0{fill:#FFFFFF;}
</style>
<g>
	<path class="st0" d="M12.5,0C5.6,0,0,5.6,0,12.5S5.6,25,12.5,25S25,19.4,25,12.5S19.4,0,12.5,0z M12.5,22.1c-5.3,0-9.6-4.3-9.6-9.6
		s4.3-9.6,9.6-9.6s9.6,4.3,9.6,9.6S17.8,22.1,12.5,22.1z"/>
	<path class="st0" d="M15.1,12l-1.3,1.3V7.7c0-0.8-0.6-1.4-1.4-1.4S11,6.9,11,7.7v5.5L9.8,12c-0.6-0.6-1.4-0.6-2,0
		c-0.3,0.3-0.4,0.7-0.4,1c-0.1,0.3,0.1,0.8,0.3,1l3.6,3.6c0.6,0.6,1.4,0.6,2,0l3.6-3.6c0.6-0.6,0.6-1.4,0-2
		C16.5,11.4,15.7,11.4,15.1,12z"/>
</g>
</svg>
