<?xml version="1.0" standalone="no"?><!DOCTYPE svg PUBLIC "-//W3C//DTD SVG 1.1//EN" "http://www.w3.org/Graphics/SVG/1.1/DTD/svg11.dtd"><svg width="90px" height="60px" version="1.1" xmlns="http://www.w3.org/2000/svg" xmlns:xlink="http://www.w3.org/1999/xlink" xml:space="preserve" style="fill-rule:evenodd;clip-rule:evenodd;stroke-linejoin:round;stroke-miterlimit:1.41421;"><g><g id="Layer1"><g id="Calque 1"><g transform="matrix(1,0,0,1,9.1756,1.67044)"><path d="M45.8484,31.1731c-0.085,-0.615 -0.49,-0.946 -0.987,-0.877c-0.966,0.134 -1.853,1.69 -1.607,4.102c1.779,-0.935 2.744,-2.142 2.594,-3.225M62.7484,29.9841c-0.082,-0.586 -0.428,-0.925 -0.691,-0.889c0,0 -0.964,5.504 -2.984,5.785c-0.351,0.049 -0.588,-0.156 -0.686,-0.859c-0.155,-1.111 0.086,-2.816 -0.139,-4.425c-0.285,-2.048 -1.142,-3.064 -2.489,-2.876c-1.405,0.195 -2.466,1.567 -3.266,3.318c-0.025,-0.175 -0.036,-0.681 -0.081,-1.002c-0.231,-1.668 -3.091,-1.42 -3.091,-1.42c0.323,0.821 0.5,1.661 0.61,2.451c0.085,0.609 0.12,1.207 0.135,1.793c-0.583,1.787 -2.1,5.253 -4.42,5.576c-1.112,0.155 -1.795,-0.466 -2.158,-1.789c2.217,-0.785 4.799,-3.024 4.433,-5.658c-0.196,-1.405 -1.121,-2.051 -2.35,-1.88c-2.634,0.367 -5.164,4.269 -4.609,8.249c0.309,2.223 1.498,3.908 3.781,3.59c2.421,-0.337 4.216,-2.691 5.255,-4.841c-0.028,0.846 -0.032,1.643 0.07,2.37c0.122,0.877 0.514,1.121 0.982,1.056c0.907,-0.126 2.077,-1.363 2.077,-1.363c-0.257,-0.561 -0.434,-1.192 -0.528,-1.866c-0.313,-2.253 1.117,-6.122 2.346,-6.293c0.38,-0.052 0.638,0.508 0.764,1.416c0.253,1.814 -0.121,3.417 0.132,5.231c0.175,1.259 0.94,2.256 2.315,2.065c2.927,-0.408 4.82,-6.1 4.592,-7.739M60.4064,41.2281c-0.159,-1.141 -4.103,-1.189 -10.249,-0.333c-8.487,1.181 -14.127,3.1 -13.886,4.826c0.048,0.352 0.081,0.586 0.164,0.753c0,0 2.537,-1.277 9.737,-2.28c6.321,-0.88 12.126,-0.972 12.624,-0.385c0,0 1.72,-1.791 1.61,-2.581M35.5854,40.3871c2.341,-0.325 4.573,-4.007 4.023,-7.958c-0.253,-1.814 -1.393,-3.147 -2.915,-2.935c-1.17,0.163 -2.03,1.058 -2.561,2.176l-0.02,-0.146c-0.232,-1.669 -3.091,-1.42 -3.091,-1.42l0.061,0.439c0.133,0.956 0.203,2.471 0.239,4.226c-0.73,0.905 -1.839,1.828 -3.449,2.307c0.802,-2.379 1.075,-5.132 0.685,-7.942c-0.689,-4.946 -3.168,-8.18 -7.207,-7.618c-2.399,0.334 -3.779,1.779 -4.551,3.527c-0.187,-0.272 -0.536,-0.641 -0.829,-0.6c-1.024,0.142 -6.145,5.569 -5.143,12.768c0.737,5.297 4.352,8.552 8.771,7.937c3.219,-0.448 5.931,-2.824 7.523,-6.178c1.856,-0.465 3.261,-1.375 4.227,-2.31c0.041,4.735 -0.067,10.319 0.138,11.787c0.199,1.433 2.636,1.154 3.485,1.035c-0.253,-0.74 -0.437,-1.64 -0.576,-2.635c-0.277,-1.99 -0.372,-4.393 -0.39,-6.657c0.418,0.21 0.906,0.291 1.58,0.197M66.9654,52.7761l-59.59,3.872c-2.76,0.18 -5.143,-1.912 -5.322,-4.672l-2.043,-31.425c-0.179,-2.761 1.913,-5.143 4.673,-5.323l59.59,-3.872c2.761,-0.18 5.143,1.912 5.323,4.672l2.042,31.425c0.179,2.76 -1.913,5.143 -4.673,5.323M21.2054,23.4181c-1.672,0.121 -4.004,1.753 -5.215,3.627c-1.282,1.984 -2.145,3.989 -1.493,8.671c0.627,4.507 2.992,6.922 6.123,6.486c1.452,-0.202 2.56,-0.948 3.366,-2.061c0.344,-0.476 0.589,-1.017 0.788,-1.57l0.278,-0.771c0.099,-0.274 0.187,-0.55 0.251,-0.835c0.446,-1.996 0.45,-4.395 0.112,-6.826c-0.742,-5.326 -2.425,-6.851 -4.21,-6.721M36.1744,31.9821c-0.907,0.127 -1.731,1.494 -2.019,3.712c-0.001,0.209 0.028,0.414 0.057,0.618c0.293,2.107 1.186,2.311 1.538,2.262c1.053,-0.146 2.173,-2.391 1.855,-4.673c-0.191,-1.375 -0.67,-2.025 -1.431,-1.919M26.3774,12.6431c-0.416,0 -0.834,-0.143 -1.175,-0.435c-0.757,-0.649 -0.845,-1.789 -0.196,-2.547l7.739,-9.031c0.325,-0.379 0.791,-0.606 1.289,-0.629c0.501,-0.015 0.984,0.161 1.342,0.508l7.94,7.713c0.715,0.696 0.732,1.839 0.037,2.555c-0.696,0.716 -1.839,0.731 -2.555,0.037l-6.56,-6.373l-6.488,7.571c-0.357,0.417 -0.864,0.631 -1.373,0.631" style="fill:#262626;fill-rule:nonzero;"/></g></g></g></g></svg>