<?xml version="1.0" standalone="no"?><!DOCTYPE svg PUBLIC "-//W3C//DTD SVG 1.1//EN" "http://www.w3.org/Graphics/SVG/1.1/DTD/svg11.dtd"><svg width="90px" height="60px" version="1.1" xmlns="http://www.w3.org/2000/svg" xmlns:xlink="http://www.w3.org/1999/xlink" xml:space="preserve" style="fill-rule:evenodd;clip-rule:evenodd;stroke-linejoin:round;stroke-miterlimit:1.41421;"><g><g id="Layer1"><g id="Calque 1" transform="matrix(1,0,0,1,14.5228,0.66905)"><path d="M60.9541,30.1423c0,15.752 -12.768,28.52 -28.519,28.52c-15.748,0 -28.516,-12.768 -28.516,-28.52c0,-2.149 0.245,-4.24 0.696,-6.253c1.882,0.909 3.983,1.434 6.21,1.434c3.15,0 6.057,-1.034 8.425,-2.763c-0.397,0.559 -0.702,1.168 -0.886,1.762c-0.86,2.796 0.904,5.285 1.706,6.18l1.753,1.876c0.36,0.369 1.23,1.33 0.805,2.707c-0.459,1.497 -2.264,2.465 -4.115,1.896c-0.827,-0.254 -2.015,-0.869 -1.749,-1.735c0.11,-0.357 0.364,-0.623 0.5,-0.928c0.125,-0.264 0.185,-0.461 0.223,-0.577c0.338,-1.105 -0.124,-2.541 -1.307,-2.906c-1.104,-0.338 -2.232,-0.071 -2.67,1.35c-0.497,1.615 0.276,4.544 4.414,5.819c4.847,1.491 8.948,-1.149 9.53,-4.591c0.366,-2.156 -0.608,-3.758 -2.391,-5.819l-1.453,-1.607c-0.881,-0.88 -1.183,-2.379 -0.272,-3.53c0.769,-0.972 1.863,-1.386 3.657,-0.899c2.618,0.71 3.785,2.527 5.731,3.992c-0.803,2.637 -1.329,5.283 -1.804,7.657l-0.291,1.769c-1.392,7.299 -2.454,11.308 -5.215,13.609c-0.557,0.395 -1.352,0.988 -2.55,1.029c-0.629,0.021 -0.832,-0.413 -0.841,-0.601c-0.014,-0.441 0.358,-0.643 0.604,-0.841c0.369,-0.202 0.927,-0.536 0.889,-1.605c-0.04,-1.263 -1.086,-2.359 -2.599,-2.309c-1.134,0.038 -2.861,1.105 -2.796,3.058c0.068,2.017 1.947,3.527 4.781,3.432c1.515,-0.051 4.897,-0.668 8.231,-4.629c3.88,-4.544 4.966,-9.752 5.782,-13.564l0.912,-5.032c0.505,0.06 1.047,0.102 1.636,0.116c4.832,0.102 7.249,-2.402 7.286,-4.222c0.024,-1.102 -0.723,-2.186 -1.769,-2.162c-0.748,0.022 -1.688,0.52 -1.914,1.555c-0.22,1.015 1.538,1.932 0.164,2.822c-0.977,0.632 -2.727,1.077 -5.192,0.716l0.449,-2.477c0.914,-4.698 2.042,-10.476 6.323,-10.616c0.312,-0.016 1.453,0.014 1.479,0.769c0.008,0.252 -0.054,0.317 -0.349,0.893c-0.301,0.449 -0.414,0.833 -0.401,1.273c0.042,1.199 0.954,1.987 2.273,1.941c1.766,-0.058 2.274,-1.777 2.245,-2.661c-0.073,-2.077 -2.26,-3.388 -5.155,-3.293c-2.897,0.101 -5.426,1.698 -7.308,3.906c-2.084,2.422 -3.471,5.294 -4.47,8.227c-1.787,-1.465 -3.166,-3.361 -6.033,-4.188c-1.926,-0.553 -3.936,-0.424 -5.834,0.664c2.411,-2.565 3.901,-6.007 3.901,-9.797c0,-2.843 -0.842,-5.487 -2.275,-7.718c2.987,-1.061 6.2,-1.644 9.55,-1.644c15.751,0 28.519,12.766 28.519,28.515" style="fill:#252626;fill-rule:nonzero;"/><path d="M7.2534,7.0566c0.412,0.012 0.811,-0.019 1.196,-0.091c0.384,-0.073 0.73,-0.201 1.037,-0.386c0.306,-0.183 0.565,-0.426 0.777,-0.726c0.212,-0.302 0.351,-0.676 0.418,-1.122l1.89,0l0,11.707l-2.375,0l0,-7.592l-2.943,0l0,-1.79ZM10.7004,21.4016c5.9,0 10.701,-4.801 10.701,-10.7c0,-2.335 -0.761,-4.491 -2.035,-6.252c-1.945,-2.69 -5.101,-4.45 -8.666,-4.45c-5.9,0 -10.7,4.801 -10.7,10.702c0,4.022 2.233,7.529 5.522,9.357c1.536,0.853 3.3,1.343 5.178,1.343" style="fill:#72b52b;fill-rule:nonzero;"/></g></g></g></svg>