<svg id="Calque_1" data-name="Calque 1" xmlns="http://www.w3.org/2000/svg" viewBox="0 0 40 40"><defs><style>.cls-1{fill:#aacd4e;}.cls-2{fill:#fff;}</style></defs><title>pictos_articles</title><circle class="cls-1" cx="20" cy="20" r="20"/><path class="cls-2" d="M20.05,13.1H19.72a6.27,6.27,0,0,0-5.5,9.15c0.32,0.63,1.33,2.51,1.85,3.82a5.24,5.24,0,0,1,.75,2.24h6.25a4.67,4.67,0,0,1,.87-2.24c0.52-1.31,1.28-3.2,1.6-3.82A6.27,6.27,0,0,0,20.05,13.1ZM20,34.12c1.79,0,3.24-2.18,3.24-4.87H16.73C16.73,31.93,18.18,34.12,20,34.12ZM30.79,9.92a1,1,0,0,0-1.38-.35l-2.79,1.91c-0.48.28-.46,0.4-0.18,0.88s0.23,0.47.71,0.18l3.29-1.23A1,1,0,0,0,30.79,9.92ZM13,11.5L10.59,9.45a1,1,0,0,0-1,1.73l2.78,1.55c0.48,0.28.59,0.13,0.88-.35S13.51,11.79,13,11.5Zm6.5-6.8a1,1,0,0,0-1,1.06L18.9,9.41c0,0.56.17,0.48,0.72,0.45s0.65,0,.61-0.55L20.6,5.66A1,1,0,0,0,19.54,4.71Z"/></svg>