<?xml version="1.0" encoding="utf-8"?>
<!-- Generator: Adobe Illustrator 16.0.0, SVG Export Plug-In . SVG Version: 6.00 Build 0)  -->
<!DOCTYPE svg PUBLIC "-//W3C//DTD SVG 1.1//EN" "http://www.w3.org/Graphics/SVG/1.1/DTD/svg11.dtd">
<svg version="1.1" id="Calque_1" xmlns="http://www.w3.org/2000/svg" xmlns:xlink="http://www.w3.org/1999/xlink" x="0px" y="0px"
	 width="96.158px" height="105.143px" viewBox="0 0 96.158 105.143" enable-background="new 0 0 96.158 105.143"
	 xml:space="preserve">
<g>
	<defs>
		<rect id="SVGID_1_" width="96.158" height="105.143"/>
	</defs>
	<clipPath id="SVGID_2_">
		<use xlink:href="#SVGID_1_"  overflow="visible"/>
	</clipPath>
	<path clip-path="url(#SVGID_2_)" fill="#4DACDB" d="M23.393,104.759l-15.598-2.085C3.332,102.078,0,98.271,0,93.768V15.456
		c0-3.866,2.472-7.298,6.138-8.523l16.187-5.408c3.75-1.253,7.624,1.538,7.624,5.491v92.005
		C29.949,102.523,26.864,105.223,23.393,104.759"/>
	<path clip-path="url(#SVGID_2_)" fill="#353436" d="M87.904,101.307l-46.691,3.816c-3.372,0.275-6.261-2.387-6.261-5.77V5.791
		c0-3.57,3.2-6.29,6.723-5.714l46.947,7.675c4.346,0.711,7.536,4.465,7.536,8.868v75.731
		C96.158,97.03,92.567,100.925,87.904,101.307"/>
	<g clip-path="url(#SVGID_2_)" enable-background="new    ">
		<g>
			<defs>
				<rect id="SVGID_3_" x="44.172" y="27.409" width="42.765" height="51.214"/>
			</defs>
			<clipPath id="SVGID_4_">
				<use xlink:href="#SVGID_3_"  overflow="visible"/>
			</clipPath>
			<g clip-path="url(#SVGID_4_)">
				<defs>
					<polygon id="SVGID_5_" points="44.402,78.624 44.173,28.219 86.708,27.409 86.937,77.814 					"/>
				</defs>
				<clipPath id="SVGID_6_">
					<use xlink:href="#SVGID_5_"  overflow="visible"/>
				</clipPath>
				<path clip-path="url(#SVGID_6_)" fill="#FFFFFF" d="M66.044,47.851c0.732-2.606,1.762-5.163,3.301-7.334
					c1.396-1.979,3.272-3.427,5.437-3.55c0.079-0.004,0.156-0.007,0.233-0.009c2.041-0.039,3.563,1.074,3.623,2.842
					c0.026,0.783-0.347,2.311-1.66,2.381c-0.03,0.001-0.06,0.003-0.089,0.003c-0.938,0.018-1.578-0.661-1.62-1.681
					c-0.009-0.395,0.072-0.73,0.299-1.13c0.218-0.517,0.263-0.572,0.255-0.797c-0.017-0.615-0.744-0.671-1.041-0.665
					c-0.024,0-0.046,0.001-0.063,0.002c-3.196,0.187-4.009,5.314-4.674,9.475l-0.323,2.192c0.458,0.072,0.883,0.1,1.273,0.093
					c1.179-0.023,2.05-0.367,2.596-0.796c1.022-0.811-0.296-1.596-0.133-2.49c0.163-0.921,0.86-1.375,1.422-1.404
					c0.008,0,0.015-0.001,0.021-0.001c0.764-0.014,1.319,0.92,1.301,1.883c-0.015,1.58-1.743,3.771-5.201,3.836
					c-0.069,0.002-0.14,0.002-0.212,0.002c-0.439-0.001-0.843-0.038-1.223-0.076l-0.655,4.458c-0.6,3.377-1.384,7.999-4.259,12.066
					c-2.475,3.548-4.994,4.136-6.125,4.202c-0.067,0.004-0.134,0.006-0.2,0.008c-1.999,0.038-3.316-1.249-3.376-2.973
					c-0.061-1.717,1.227-2.687,2.069-2.739c0.024-0.001,0.05-0.002,0.075-0.003c1.091-0.02,1.843,0.919,1.878,2.01
					c0.026,0.943-0.383,1.248-0.662,1.425c-0.182,0.184-0.454,0.369-0.445,0.755c0.009,0.167,0.155,0.529,0.601,0.521
					c0.012-0.001,0.021-0.001,0.032-0.002c0.89-0.053,1.479-0.586,1.896-0.944c2.048-2.072,2.83-5.633,3.833-12.104l0.213-1.561
					c0.34-2.104,0.724-4.45,1.313-6.792c-1.457-1.268-2.337-2.853-4.292-3.446c-0.382-0.116-0.722-0.167-1.024-0.161
					c-0.758,0.014-1.288,0.387-1.698,1.005c-0.671,1.03-0.445,2.348,0.219,3.118l1.085,1.401c1.338,1.793,2.073,3.191,1.809,5.104
					c-0.337,2.453-2.376,4.479-5.045,4.529c-0.649,0.012-1.336-0.092-2.044-0.336c-3.09-1.066-3.679-3.646-3.313-5.084
					c0.24-0.941,0.773-1.318,1.371-1.329c0.2-0.004,0.407,0.033,0.613,0.104c0.883,0.308,1.237,1.569,0.983,2.546
					c-0.021,0.108-0.066,0.28-0.156,0.517c-0.105,0.271-0.295,0.509-0.376,0.826c-0.194,0.768,0.696,1.291,1.313,1.504
					c0.275,0.095,0.547,0.136,0.811,0.131c1.066-0.021,1.98-0.797,2.249-1.863c0.314-1.22-0.335-2.054-0.609-2.382l-1.314-1.63
					c-0.604-0.781-1.927-2.951-1.293-5.438c0.238-0.958,0.758-1.976,1.507-2.656c1.071-0.969,2.204-1.408,3.334-1.429
					c0.554-0.011,1.105,0.079,1.65,0.254C63.668,44.927,64.709,46.58,66.044,47.851 M65.437,27.814
					c-11.741,0.224-21.212,11.688-21.149,25.607s9.639,25.021,21.379,24.797c11.748-0.223,21.221-11.688,21.156-25.607
					C86.76,38.692,77.185,27.59,65.437,27.814"/>
			</g>
		</g>
	</g>
</g>
</svg>
