<?xml version="1.0" standalone="no"?><!DOCTYPE svg PUBLIC "-//W3C//DTD SVG 1.1//EN" "http://www.w3.org/Graphics/SVG/1.1/DTD/svg11.dtd"><svg width="100%" height="100%" viewBox="0 0 90 60" version="1.1" xmlns="http://www.w3.org/2000/svg" xmlns:xlink="http://www.w3.org/1999/xlink" xml:space="preserve" style="fill-rule:evenodd;clip-rule:evenodd;stroke-linejoin:round;stroke-miterlimit:1.41421;"><g id="Calque 1"><g id="Calque 11"><path d="M71.55,51.1c0,3.2 -2.6,5.7 -5.7,5.7l-41.7,0c-3.2,0 -5.7,-2.6 -5.7,-5.7l0,-37.1l53.1,0l0,37.1ZM23.75,4.5c1.3,0 2.4,1.1 2.4,2.4c0,1.3 -1.1,2.4 -2.4,2.4c-1.3,0 -2.4,-1 -2.4,-2.3c0,-1.3 1.1,-2.5 2.4,-2.5M31.05,4.5c1.3,0 2.4,1.1 2.4,2.4c0,1.3 -1.1,2.4 -2.4,2.4c-1.3,0 -2.4,-1.1 -2.4,-2.4c0,-1.3 1,-2.4 2.4,-2.4M65.75,0l-41.6,0c-4.9,0 -8.9,4 -8.9,8.9l0,42.2c0,4.9 4,8.9 8.9,8.9l41.7,0c4.9,0 8.9,-4 8.9,-8.9l0,-37.1l0,-3.2l0,-2c-0.1,-4.8 -4.1,-8.8 -9,-8.8M32.45,37.3c0.3,-0.9 1,-1.1 1.7,-0.9c0.8,0.2 1.1,1.2 0.9,1.9c0,0.1 -0.1,0.2 -0.1,0.4c-0.1,0.2 -0.3,0.4 -0.3,0.6c-0.2,0.6 0.6,1 1.1,1.1c1.2,0.4 2.4,-0.3 2.7,-1.2c0.3,-0.9 -0.3,-1.5 -0.5,-1.8l-1.1,-1.2c-0.5,-0.6 -1.7,-2.2 -1.1,-4c0.2,-0.7 0.7,-1.5 1.3,-1.9c1.4,-1 2.9,-1.2 4.4,-0.8c1.9,0.5 2.8,1.8 3.9,2.7c0.7,-1.9 1.6,-3.8 2.9,-5.4c1.2,-1.4 2.9,-2.5 4.8,-2.6c1.9,-0.1 3.3,0.8 3.4,2.2c0,0.6 -0.3,1.7 -1.5,1.7c-0.9,0 -1.5,-0.5 -1.5,-1.3c0,-0.3 0.1,-0.5 0.3,-0.8c0.2,-0.4 0.2,-0.4 0.2,-0.6c0,-0.5 -0.8,-0.5 -1,-0.5c-2.8,0.1 -3.5,3.9 -4.1,6.9l-0.3,1.6c1.6,0.2 2.8,-0.1 3.4,-0.5c0.9,-0.6 -0.3,-1.2 -0.1,-1.8c0.1,-0.7 0.8,-1 1.3,-1c0.7,0 1.2,0.7 1.2,1.4c0,1.2 -1.6,2.8 -4.8,2.8c-0.4,0 -0.7,0 -1.1,-0.1l-0.6,3.3c-0.5,2.5 -1.2,5.9 -3.8,8.9c-2.2,2.6 -4.4,3 -5.4,3c-1.9,0.1 -3.1,-0.9 -3.1,-2.2c0,-1.3 1.1,-2 1.8,-2c1,0 1.7,0.7 1.7,1.5c0,0.7 -0.3,0.9 -0.6,1c-0.2,0.1 -0.4,0.3 -0.4,0.5c0,0.1 0.1,0.4 0.5,0.4c0.8,0 1.3,-0.4 1.7,-0.7c1.8,-1.5 2.5,-4.1 3.4,-8.9l0.2,-1.2c0.3,-1.6 0.7,-3.3 1.2,-5c-1.3,-1 -2,-2.1 -3.7,-2.6c-1.2,-0.3 -1.9,0 -2.4,0.6c-0.6,0.8 -0.4,1.7 0.2,2.3l0.9,1c1.2,1.3 1.8,2.4 1.6,3.8c-0.4,2.2 -3.1,4 -6.2,3c-2.8,-0.6 -3.3,-2.5 -3,-3.6M44.85,54.6c10.3,0 18.6,-8.3 18.6,-18.6c0,-10.3 -8.3,-18.6 -18.6,-18.6c-10.3,0 -18.6,8.3 -18.6,18.6c0,10.3 8.3,18.6 18.6,18.6" style="fill:#262626;fill-rule:nonzero;"/></g></g></svg>